<?xml version="1.0" encoding="utf-8"?>
<!-- Generator: Adobe Illustrator 19.2.1, SVG Export Plug-In . SVG Version: 6.00 Build 0)  -->
<!DOCTYPE svg PUBLIC "-//W3C//DTD SVG 1.1//EN" "http://www.w3.org/Graphics/SVG/1.1/DTD/svg11.dtd">
<svg version="1.1" id="Layer_1" xmlns="http://www.w3.org/2000/svg" xmlns:xlink="http://www.w3.org/1999/xlink" x="0px" y="0px"
	 viewBox="0 0 398.1 167.4" style="enable-background:new 0 0 398.1 167.4;" xml:space="preserve">
<style type="text/css">
	.st0{fill:none;}
	.st1{fill:#716C99;}
	.st2{fill:#FFFFFF;}
	.st3{fill:#D8996F;}
	.st4{fill:#999999;}
</style>
<path class="st0" d="M256.1,31.5h-8.3v18.9h8.3c5.6,0,9.4-3.8,9.4-9.4S261.7,31.5,256.1,31.5z"/>
<polygon class="st0" points="332.9,71.5 350.2,71.5 341.6,41.1 "/>
<path class="st0" d="M20.9,103.5c11.4,10.9,25.9,16.4,40.6,16.4c0.4,0,0.7,0,1.1,0l0,0c15-0.3,29.8-6.2,41-17.9
	c10.9-11.4,16.4-25.9,16.4-40.6c0-0.4,0-0.7,0-1.1v0c-0.3-15-6.2-29.8-17.9-41l0,0C90.6,8.4,76.1,3,61.4,3c-0.4,0-0.7,0-1.1,0h0
	c-15,0.3-29.8,6.2-41,17.9C8.4,32.2,3,46.8,3,61.5c0,0.4,0,0.7,0,1.1v0C3.3,77.5,9.3,92.3,20.9,103.5z M97,95.7
	c-9.6,9.9-22.2,15-35,15.2c-1.8,0-3.7,0-5.5-0.2L108,78.1C105.7,84.5,102,90.5,97,95.7z M111,60.2c0,0.7,0,1.3,0,2l-70.1,44.5
	c-3.8-1.7-7.4-3.9-10.8-6.6l79.6-50.5C110.4,53.1,110.9,56.6,111,60.2z M105.4,38.3L21.6,91.5c-2.4-3.1-4.3-6.3-5.9-9.8l83.3-52.9
	C101.6,31.8,103.7,35,105.4,38.3z M91.9,21.9L64.6,39.3C63.8,39.8,63,40,62.2,40l-13-0.1c-2.5,0-2.5-2.8,0-4.4L81,15.4
	C84.8,17.1,88.5,19.2,91.9,21.9z M25.2,26.6c9.6-9.9,22.2-15,35-15.2c2.2,0,4.5,0.1,6.7,0.3L13.9,45.3
	C16.1,38.5,19.9,32.1,25.2,26.6z M27.9,49.1c0.8-0.5,1.6-0.7,2.4-0.7l13,0.1c2.5,0,2.5,2.8,0,4.4L12.6,72.3
	c-0.8-3.4-1.2-6.8-1.3-10.3c0-0.8,0-1.6,0-2.4L27.9,49.1z"/>
<g>
	<path class="st1" d="M163.7,39.5c0-3.5,3.2-5.8,8.2-5.8c5.6,0.5,14.7,3.8,22.6,8.3c1.3,0.8,2.4,0.3,2.9-1.3l10.1-22.6
		c0.5-0.8,0-2.1-1.3-2.9C196,8.5,181.6,3.8,170.2,3.8c-24.3,0-40.5,14.2-40.5,35.7c0,34.9,45,34.4,45,43.8c0,3.7-3.4,6.1-8.5,6.1
		c-6.1-0.5-14.9-3.5-22.2-7.7c-1.3-0.8-2.4-0.3-2.9,1.3L131,105.6c-0.5,0.8,0,1.9,1.3,2.9c8,6.4,22.1,10.6,35.5,10.6
		c24.6,0,41.1-14.2,41.1-35.5C208.9,48.3,163.7,49,163.7,39.5z"/>
	<path class="st1" d="M299.5,44.3c0-22.9-16.8-38.1-44.8-38.1h-37.8c-1.1,0-2.2,1.1-2.2,2.4v105.8c0,1.1,1.1,2.2,2.2,2.2h28.6
		c1.4,0,2.6-1.1,2.6-2.2v-32h6.6C282.7,82.4,299.5,67.2,299.5,44.3z M256.1,53.8h-8.3V34.9h8.3c5.6,0,9.4,3.8,9.4,9.4
		S261.7,53.8,256.1,53.8z"/>
	<path class="st1" d="M397.9,114.6L361.7,8.3c-0.5-1-2.2-2.1-3.8-2.1h-32.6c-1.6,0-3.4,1.1-3.8,2.1l-36.2,106.2
		c-0.5,1,0.2,2.1,1.4,2.1h31.7c1.4,0,2.7-0.8,3.4-2.1l4.8-16.8h30.1l4.8,16.8c0.6,1.3,1.9,2.1,3.4,2.1h31.7
		C397.7,116.6,398.4,115.5,397.9,114.6z M332.9,74.9l8.6-30.4l8.6,30.4H332.9z"/>
</g>
<polygon class="st2" points="18.4,19.9 18.3,19.8 18.4,19.9 18.3,19.8 "/>
<path class="st3" d="M21.6,91.5l83.8-53.2c-1.7-3.3-3.8-6.5-6.3-9.4L15.8,81.8C17.3,85.2,19.2,88.5,21.6,91.5z"/>
<path class="st3" d="M60.2,11.3c-12.8,0.2-25.4,5.3-35,15.2c-5.3,5.5-9.1,12-11.4,18.8l53.1-33.7C64.7,11.4,62.5,11.3,60.2,11.3z"/>
<path class="st3" d="M40.9,106.7L111,62.2c0-0.7,0-1.3,0-2c-0.1-3.6-0.5-7.2-1.4-10.7L30,100.1C33.4,102.8,37.1,105,40.9,106.7z"/>
<path class="st3" d="M62,111c12.8-0.2,25.4-5.3,35-15.2c5-5.2,8.7-11.2,11-17.6l-51.4,32.7C58.4,110.9,60.2,111,62,111z"/>
<path class="st3" d="M49.2,40l13,0.1c0.8,0,1.6-0.3,2.4-0.7l27.3-17.3c-3.4-2.7-7.1-4.9-10.9-6.5L49.3,35.5
	C46.7,37.2,46.7,39.9,49.2,40z"/>
<path class="st3" d="M12.6,72.3l30.7-19.5c2.5-1.6,2.6-4.4,0-4.4l-13-0.1c-0.8,0-1.6,0.3-2.4,0.7L11.3,59.7c0,0.8,0,1.6,0,2.4
	C11.4,65.5,11.8,69,12.6,72.3z"/>
<path class="st1" d="M122.9,61.4c0-0.4,0-0.7,0-1.1v0c-0.3-15.7-6.6-31.3-18.8-43.1l0,0C92.1,5.7,76.8,0,61.4,0c-0.4,0-0.7,0-1.1,0
	h0C44.6,0.3,29,6.6,17.2,18.8l0,0C5.7,30.7,0,46.1,0,61.5c0,0.4,0,0.7,0,1.1l0,0c0.3,15.7,6.6,31.3,18.8,43.1l0,0
	c11.9,11.5,27.3,17.2,42.6,17.2c0.4,0,0.7,0,1.1,0l0,0c15.7-0.3,31.3-6.6,43.1-18.8C117.2,92.1,122.9,76.8,122.9,61.4z M3,62.5
	L3,62.5c0-0.4,0-0.7,0-1.1c0-14.6,5.4-29.2,16.4-40.6C30.6,9.3,45.4,3.3,60.4,3h0c0.4,0,0.7,0,1.1,0C76.1,3,90.6,8.4,102,19.4l0,0
	c11.6,11.2,17.6,26,17.9,41v0c0,0.4,0,0.7,0,1.1c0,14.6-5.4,29.2-16.4,40.6c-11.2,11.6-26,17.6-41,17.9l0,0c-0.4,0-0.7,0-1.1,0
	c-14.6,0-29.2-5.4-40.6-16.4C9.3,92.3,3.3,77.5,3,62.5z"/>
<g>
	<path class="st4" d="M3.7,155.5c0.6,1,1.3,1.7,2.1,2.1c0.9,0.5,1.9,0.7,3,0.7c0.7,0,1.4-0.1,2-0.3c0.6-0.2,1.1-0.5,1.6-0.9
		s0.8-0.8,1.1-1.4c0.3-0.5,0.4-1.1,0.4-1.8c0-0.8-0.2-1.4-0.5-1.9c-0.3-0.5-0.8-0.9-1.3-1.3c-0.6-0.3-1.2-0.6-1.9-0.8
		c-0.7-0.2-1.4-0.5-2.1-0.7c-0.7-0.2-1.4-0.5-2.1-0.8c-0.7-0.3-1.3-0.7-1.9-1.2c-0.6-0.5-1-1.1-1.3-1.8c-0.3-0.7-0.5-1.6-0.5-2.7
		c0-1,0.2-1.9,0.6-2.7c0.4-0.8,0.9-1.4,1.6-1.9c0.7-0.5,1.4-0.9,2.3-1.2c0.9-0.3,1.8-0.4,2.7-0.4c1.2,0,2.4,0.2,3.4,0.7
		c1,0.4,2,1.2,2.7,2.2l-1.8,1.3c-0.5-0.7-1.1-1.3-1.9-1.7c-0.7-0.4-1.6-0.6-2.5-0.6c-0.7,0-1.3,0.1-1.9,0.3
		c-0.6,0.2-1.1,0.4-1.6,0.8s-0.8,0.8-1.1,1.3c-0.3,0.5-0.4,1.2-0.4,1.9c0,1.1,0.3,2,0.9,2.6c0.6,0.6,1.3,1.1,2.1,1.4
		c0.9,0.3,1.8,0.7,2.8,0.9c1,0.3,1.9,0.6,2.8,1.1c0.9,0.4,1.6,1.1,2.1,1.9c0.6,0.8,0.9,1.9,0.9,3.3c0,1-0.2,1.9-0.6,2.7
		c-0.4,0.8-0.9,1.4-1.5,2s-1.4,0.9-2.2,1.2c-0.8,0.3-1.7,0.4-2.6,0.4c-1.5,0-2.8-0.3-4.1-0.8c-1.2-0.5-2.3-1.4-3.2-2.6L3.7,155.5z"
		/>
	<path class="st4" d="M32.6,155.5c0,0.3,0,0.6,0,1c0,0.4,0,0.8,0,1.2c0,0.4,0,0.8,0,1.1s0,0.6,0,0.8h-1.9c0-0.6,0-1.1,0-1.6
		c0-0.5,0-0.8-0.1-1h-0.1c-0.4,0.8-1,1.5-1.9,2.1c-0.9,0.6-1.9,0.9-3.1,0.9c-1.1,0-2.1-0.2-2.8-0.5c-0.7-0.4-1.3-0.8-1.7-1.4
		c-0.4-0.6-0.7-1.3-0.8-2c-0.1-0.8-0.2-1.5-0.2-2.4V145H22v8.6c0,0.6,0.1,1.2,0.2,1.7c0.1,0.6,0.3,1.1,0.6,1.5
		c0.3,0.4,0.6,0.8,1.1,1.1c0.5,0.3,1.1,0.4,1.9,0.4c0.7,0,1.4-0.1,2-0.4c0.6-0.2,1.2-0.6,1.6-1.1c0.5-0.5,0.8-1.1,1.1-1.9
		c0.3-0.8,0.4-1.6,0.4-2.7V145h1.9V155.5z"/>
	<path class="st4" d="M37.9,149.1c0-0.3,0-0.6,0-1c0-0.4,0-0.8,0-1.2c0-0.4,0-0.8,0-1.1c0-0.3,0-0.6,0-0.8h1.9c0,0.6,0,1.1,0,1.6
		s0,0.8,0.1,1c0.5-0.9,1.1-1.6,1.9-2.1c0.8-0.6,1.7-0.8,2.8-0.8c0.2,0,0.4,0,0.6,0c0.2,0,0.4,0.1,0.6,0.1l-0.2,1.9
		c-0.3-0.1-0.5-0.1-0.7-0.1c-0.8,0-1.5,0.1-2.1,0.4c-0.6,0.3-1.1,0.6-1.5,1.1c-0.4,0.5-0.7,1-0.9,1.6c-0.2,0.6-0.3,1.3-0.3,2v8h-1.9
		V149.1z"/>
	<path class="st4" d="M46.4,145h2.2l4.9,12.6l4.8-12.6h1.9l-5.8,14.7h-2L46.4,145z"/>
	<path class="st4" d="M76.1,156.9c-0.7,1.1-1.7,1.9-2.7,2.4c-1.1,0.5-2.3,0.7-3.6,0.7c-1.1,0-2.1-0.2-3-0.6
		c-0.9-0.4-1.7-0.9-2.4-1.6c-0.7-0.7-1.2-1.5-1.5-2.4c-0.3-0.9-0.5-2-0.5-3.1c0-1.1,0.2-2.1,0.5-3c0.4-0.9,0.9-1.7,1.5-2.4
		c0.7-0.7,1.4-1.2,2.3-1.6c0.9-0.4,1.9-0.6,3-0.6c1.1,0,2.1,0.2,3,0.6c0.9,0.4,1.6,0.9,2.2,1.6c0.6,0.6,1,1.4,1.3,2.2
		c0.3,0.8,0.4,1.7,0.4,2.5v1.3H64.2c0,0.4,0.1,0.9,0.2,1.5c0.2,0.6,0.4,1.2,0.9,1.8c0.4,0.6,1,1.1,1.7,1.5c0.7,0.4,1.6,0.6,2.7,0.6
		c1,0,1.9-0.2,2.8-0.7c0.9-0.5,1.6-1.1,2.1-1.9L76.1,156.9z M74.7,151.1c0-0.7-0.1-1.3-0.4-1.8c-0.3-0.6-0.6-1.1-1.1-1.5
		c-0.5-0.4-1-0.8-1.6-1c-0.6-0.3-1.3-0.4-2-0.4c-1,0-1.9,0.2-2.6,0.6c-0.7,0.4-1.2,0.9-1.6,1.5c-0.4,0.6-0.7,1.1-0.9,1.6
		c-0.2,0.5-0.3,0.9-0.3,1.1H74.7z"/>
	<path class="st4" d="M80.7,139.2c0-0.4,0.1-0.7,0.4-1c0.3-0.3,0.6-0.4,1-0.4c0.4,0,0.7,0.1,1,0.4c0.3,0.3,0.4,0.6,0.4,1
		s-0.1,0.7-0.4,1c-0.3,0.3-0.6,0.4-1,0.4c-0.4,0-0.7-0.1-1-0.4C80.8,139.9,80.7,139.6,80.7,139.2z M81.1,145H83v14.7h-1.9V145z"/>
	<path class="st4" d="M88.8,135.7h1.9v24h-1.9V135.7z"/>
	<path class="st4" d="M96.4,135.7h1.9v24h-1.9V135.7z"/>
	<path class="st4" d="M115.1,153.5c0,0.7,0,1.4,0,1.9c0,0.6,0,1.1,0,1.6c0,0.5,0,0.9,0.1,1.4c0,0.4,0.1,0.8,0.1,1.3h-1.8
		c-0.1-0.7-0.2-1.5-0.2-2.4h-0.1c-0.6,1-1.2,1.7-2,2.1c-0.8,0.4-1.8,0.7-3.1,0.7c-0.6,0-1.3-0.1-1.9-0.2c-0.6-0.2-1.2-0.4-1.7-0.8
		c-0.5-0.3-0.9-0.8-1.2-1.4c-0.3-0.6-0.5-1.2-0.5-2c0-1.1,0.3-2,0.9-2.7c0.6-0.7,1.3-1.1,2.1-1.5c0.8-0.3,1.7-0.5,2.7-0.6
		c0.9-0.1,1.8-0.1,2.5-0.1h2.2v-0.9c0-1.3-0.4-2.2-1.2-2.7c-0.8-0.6-1.8-0.8-3-0.8c-1.7,0-3.2,0.6-4.5,1.7l-1.1-1.3
		c0.7-0.7,1.6-1.2,2.6-1.5c1-0.3,2-0.5,3-0.5c1.8,0,3.2,0.4,4.3,1.3c1.1,0.8,1.6,2.2,1.6,4.1V153.5z M111.3,152.3
		c-0.8,0-1.6,0.1-2.3,0.2c-0.8,0.1-1.4,0.3-2,0.5c-0.6,0.3-1.1,0.6-1.4,1c-0.4,0.4-0.5,1-0.5,1.6c0,0.4,0.1,0.8,0.3,1.2
		c0.2,0.3,0.5,0.6,0.8,0.9c0.3,0.2,0.7,0.4,1.1,0.5c0.4,0.1,0.8,0.2,1.2,0.2c1,0,1.9-0.1,2.5-0.4c0.7-0.3,1.2-0.7,1.6-1.2
		c0.4-0.5,0.7-1,0.8-1.6c0.1-0.6,0.2-1.2,0.2-1.8v-1H111.3z"/>
	<path class="st4" d="M120.2,149.1c0-0.3,0-0.6,0-1c0-0.4,0-0.8,0-1.2c0-0.4,0-0.8,0-1.1c0-0.3,0-0.6,0-0.8h1.9c0,0.6,0,1.1,0,1.6
		s0,0.8,0.1,1h0.1c0.4-0.8,1-1.5,1.9-2.1c0.9-0.6,1.9-0.9,3.1-0.9c1.1,0,2.1,0.2,2.8,0.5c0.7,0.4,1.3,0.8,1.7,1.4
		c0.4,0.6,0.7,1.3,0.9,2c0.2,0.8,0.2,1.5,0.2,2.4v8.7h-1.9V151c0-0.6-0.1-1.2-0.2-1.7s-0.3-1.1-0.6-1.5c-0.3-0.4-0.6-0.8-1.1-1.1
		c-0.5-0.3-1.1-0.4-1.9-0.4c-0.7,0-1.4,0.1-2,0.4c-0.6,0.2-1.2,0.6-1.6,1.1s-0.8,1.1-1.1,1.9c-0.3,0.8-0.4,1.6-0.4,2.7v7.3h-1.9
		V149.1z"/>
	<path class="st4" d="M150.2,157.5c-0.7,0.9-1.5,1.5-2.4,1.9c-0.9,0.4-1.9,0.6-3,0.6c-1.1,0-2.2-0.2-3.1-0.6c-1-0.4-1.8-0.9-2.4-1.6
		c-0.7-0.7-1.2-1.5-1.6-2.4c-0.4-0.9-0.6-2-0.6-3.1c0-1.1,0.2-2.2,0.6-3.1c0.4-0.9,0.9-1.8,1.6-2.4c0.7-0.7,1.5-1.2,2.4-1.6
		s2-0.6,3.1-0.6c1.1,0,2.1,0.2,3,0.7c0.9,0.4,1.7,1.1,2.5,1.9l-1.5,1.1c-0.6-0.6-1.2-1.1-1.8-1.4c-0.7-0.3-1.4-0.5-2.1-0.5
		c-0.9,0-1.7,0.2-2.4,0.5c-0.7,0.3-1.3,0.7-1.8,1.3s-0.9,1.2-1.2,1.9c-0.3,0.7-0.4,1.5-0.4,2.3c0,0.8,0.1,1.6,0.4,2.3
		c0.3,0.7,0.7,1.4,1.2,1.9s1.1,1,1.8,1.3c0.7,0.3,1.5,0.5,2.4,0.5c0.8,0,1.5-0.2,2.2-0.6s1.2-0.9,1.7-1.5L150.2,157.5z"/>
	<path class="st4" d="M166.1,156.9c-0.7,1.1-1.7,1.9-2.7,2.4c-1.1,0.5-2.3,0.7-3.6,0.7c-1.1,0-2.1-0.2-3-0.6
		c-0.9-0.4-1.7-0.9-2.4-1.6c-0.7-0.7-1.2-1.5-1.5-2.4c-0.3-0.9-0.5-2-0.5-3.1c0-1.1,0.2-2.1,0.5-3c0.4-0.9,0.9-1.7,1.5-2.4
		c0.7-0.7,1.4-1.2,2.3-1.6c0.9-0.4,1.9-0.6,3-0.6c1.1,0,2.1,0.2,3,0.6c0.9,0.4,1.6,0.9,2.2,1.6c0.6,0.6,1,1.4,1.3,2.2
		c0.3,0.8,0.4,1.7,0.4,2.5v1.3h-12.3c0,0.4,0.1,0.9,0.2,1.5c0.2,0.6,0.4,1.2,0.9,1.8c0.4,0.6,1,1.1,1.7,1.5c0.7,0.4,1.6,0.6,2.7,0.6
		c1,0,1.9-0.2,2.8-0.7c0.9-0.5,1.6-1.1,2.1-1.9L166.1,156.9z M164.7,151.1c0-0.7-0.1-1.3-0.4-1.8c-0.3-0.6-0.6-1.1-1.1-1.5
		c-0.5-0.4-1-0.8-1.6-1c-0.6-0.3-1.3-0.4-2-0.4c-1,0-1.9,0.2-2.6,0.6c-0.7,0.4-1.2,0.9-1.6,1.5c-0.4,0.6-0.7,1.1-0.9,1.6
		c-0.2,0.5-0.3,0.9-0.3,1.1H164.7z"/>
	<path class="st4" d="M179.6,137.2h6.5c0.8,0,1.6,0.1,2.5,0.3c0.9,0.2,1.6,0.5,2.4,0.9s1.3,1.1,1.7,1.8c0.5,0.8,0.7,1.7,0.7,2.9
		c0,1-0.2,1.9-0.6,2.6c-0.4,0.7-0.9,1.4-1.5,1.8c-0.6,0.5-1.3,0.8-2.2,1.1c-0.8,0.2-1.7,0.3-2.6,0.3h-4.9v10.7h-2.1V137.2z
		 M181.7,147.1h4.8c0.6,0,1.2-0.1,1.7-0.2c0.6-0.1,1.1-0.4,1.5-0.7c0.4-0.3,0.8-0.7,1.1-1.2c0.3-0.5,0.4-1.1,0.4-1.9
		c0-0.7-0.1-1.3-0.4-1.8c-0.3-0.5-0.7-0.9-1.1-1.3c-0.5-0.3-1-0.6-1.6-0.7c-0.6-0.1-1.2-0.2-1.8-0.2h-4.6V147.1z"/>
	<path class="st4" d="M208.7,153.5c0,0.7,0,1.4,0,1.9c0,0.6,0,1.1,0,1.6s0,0.9,0.1,1.4c0,0.4,0.1,0.8,0.1,1.3h-1.8
		c-0.1-0.7-0.2-1.5-0.2-2.4H207c-0.6,1-1.2,1.7-2,2.1c-0.8,0.4-1.8,0.7-3.1,0.7c-0.6,0-1.3-0.1-1.9-0.2c-0.6-0.2-1.2-0.4-1.7-0.8
		c-0.5-0.3-0.9-0.8-1.2-1.4c-0.3-0.6-0.5-1.2-0.5-2c0-1.1,0.3-2,0.9-2.7c0.6-0.7,1.3-1.1,2.1-1.5c0.8-0.3,1.7-0.5,2.7-0.6
		c0.9-0.1,1.8-0.1,2.5-0.1h2.2v-0.9c0-1.3-0.4-2.2-1.2-2.7c-0.8-0.6-1.8-0.8-3-0.8c-1.7,0-3.2,0.6-4.5,1.7l-1.1-1.3
		c0.7-0.7,1.6-1.2,2.6-1.5c1-0.3,2-0.5,3-0.5c1.8,0,3.2,0.4,4.3,1.3c1.1,0.8,1.6,2.2,1.6,4.1V153.5z M204.9,152.3
		c-0.8,0-1.6,0.1-2.3,0.2c-0.8,0.1-1.4,0.3-2,0.5c-0.6,0.3-1.1,0.6-1.4,1c-0.4,0.4-0.5,1-0.5,1.6c0,0.4,0.1,0.8,0.3,1.2
		c0.2,0.3,0.5,0.6,0.8,0.9c0.3,0.2,0.7,0.4,1.1,0.5c0.4,0.1,0.8,0.2,1.2,0.2c1,0,1.9-0.1,2.5-0.4c0.7-0.3,1.2-0.7,1.6-1.2
		c0.4-0.5,0.7-1,0.8-1.6c0.1-0.6,0.2-1.2,0.2-1.8v-1H204.9z"/>
	<path class="st4" d="M226.2,155.5c0,0.3,0,0.6,0,1c0,0.4,0,0.8,0,1.2c0,0.4,0,0.8,0,1.1c0,0.3,0,0.6,0,0.8h-1.9c0-0.6,0-1.1,0-1.6
		s0-0.8-0.1-1h-0.1c-0.4,0.8-1,1.5-1.9,2.1c-0.9,0.6-1.9,0.9-3.1,0.9c-1.1,0-2.1-0.2-2.8-0.5c-0.7-0.4-1.3-0.8-1.7-1.4
		c-0.4-0.6-0.7-1.3-0.8-2c-0.1-0.8-0.2-1.5-0.2-2.4V145h1.9v8.6c0,0.6,0.1,1.2,0.2,1.7c0.1,0.6,0.3,1.1,0.6,1.5
		c0.3,0.4,0.6,0.8,1.1,1.1c0.5,0.3,1.1,0.4,1.9,0.4c0.7,0,1.4-0.1,2-0.4c0.6-0.2,1.2-0.6,1.6-1.1c0.5-0.5,0.8-1.1,1.1-1.9
		c0.3-0.8,0.4-1.6,0.4-2.7V145h1.9V155.5z"/>
	<path class="st4" d="M243.8,157.5c-0.7,0.9-1.5,1.5-2.4,1.9c-0.9,0.4-1.9,0.6-3,0.6c-1.1,0-2.2-0.2-3.1-0.6c-1-0.4-1.8-0.9-2.4-1.6
		c-0.7-0.7-1.2-1.5-1.6-2.4c-0.4-0.9-0.6-2-0.6-3.1c0-1.1,0.2-2.2,0.6-3.1c0.4-0.9,0.9-1.8,1.6-2.4c0.7-0.7,1.5-1.2,2.4-1.6
		s2-0.6,3.1-0.6c1.1,0,2.1,0.2,3,0.7c0.9,0.4,1.7,1.1,2.5,1.9l-1.5,1.1c-0.6-0.6-1.2-1.1-1.8-1.4c-0.7-0.3-1.4-0.5-2.1-0.5
		c-0.9,0-1.7,0.2-2.4,0.5c-0.7,0.3-1.3,0.7-1.8,1.3c-0.5,0.5-0.9,1.2-1.2,1.9c-0.3,0.7-0.4,1.5-0.4,2.3c0,0.8,0.1,1.6,0.4,2.3
		c0.3,0.7,0.7,1.4,1.2,1.9c0.5,0.5,1.1,1,1.8,1.3c0.7,0.3,1.5,0.5,2.4,0.5c0.8,0,1.5-0.2,2.2-0.6s1.2-0.9,1.7-1.5L243.8,157.5z"/>
	<path class="st4" d="M246.6,139.2c0-0.4,0.1-0.7,0.4-1c0.3-0.3,0.6-0.4,1-0.4s0.7,0.1,1,0.4c0.3,0.3,0.4,0.6,0.4,1s-0.1,0.7-0.4,1
		c-0.3,0.3-0.6,0.4-1,0.4s-0.7-0.1-1-0.4C246.7,139.9,246.6,139.6,246.6,139.2z M247.1,145h1.9v14.7h-1.9V145z"/>
	<path class="st4" d="M261.6,146.7h-4.2v9.6c0,0.7,0.2,1.2,0.5,1.5c0.4,0.4,0.9,0.5,1.5,0.5c0.4,0,0.7,0,1.1-0.1
		c0.4-0.1,0.7-0.2,1.1-0.4l0.2,1.7c-0.4,0.1-0.8,0.2-1.2,0.3c-0.5,0.1-0.9,0.2-1.2,0.2c-0.7,0-1.3-0.1-1.7-0.3
		c-0.5-0.2-0.9-0.5-1.2-0.8c-0.3-0.3-0.5-0.7-0.7-1.2s-0.2-0.9-0.2-1.5v-9.6h-3.2V145h3.2v-4.2h1.9v4.2h4.2V146.7z"/>
	<path class="st4" d="M269.1,164.2c-0.4,1-0.9,1.7-1.5,2.3c-0.6,0.6-1.5,0.8-2.5,0.8c-0.3,0-0.6,0-1-0.1c-0.3-0.1-0.6-0.1-0.9-0.2
		l0.2-1.8c0.3,0.1,0.6,0.2,0.8,0.2s0.6,0.1,0.9,0.1c0.3,0,0.6-0.1,0.9-0.2c0.3-0.1,0.5-0.3,0.7-0.6c0.2-0.2,0.4-0.5,0.5-0.8
		c0.1-0.3,0.3-0.6,0.4-0.9l1.3-3.4l-6-14.7h2.1l4.9,12.4l4.7-12.4h2L269.1,164.2z"/>
	<path class="st4" d="M295.4,137.2h2.2l9.5,22.5h-2.4l-2.4-6h-11.9l-2.5,6h-2.2L295.4,137.2z M296.3,139.5l-5.2,12.3h10.3
		L296.3,139.5z"/>
	<path class="st4" d="M309.7,149.1c0-0.3,0-0.6,0-1c0-0.4,0-0.8,0-1.2c0-0.4,0-0.8,0-1.1c0-0.3,0-0.6,0-0.8h1.9c0,0.6,0,1.1,0,1.6
		c0,0.5,0,0.8,0.1,1h0.1c0.4-0.8,1-1.5,1.9-2.1c0.9-0.6,1.9-0.9,3.1-0.9c1.1,0,2.1,0.2,2.8,0.5c0.7,0.4,1.3,0.8,1.7,1.4
		c0.4,0.6,0.7,1.3,0.9,2c0.2,0.8,0.2,1.5,0.2,2.4v8.7h-1.9V151c0-0.6-0.1-1.2-0.2-1.7c-0.1-0.6-0.3-1.1-0.6-1.5s-0.6-0.8-1.1-1.1
		c-0.5-0.3-1.1-0.4-1.9-0.4c-0.7,0-1.4,0.1-2,0.4c-0.6,0.2-1.2,0.6-1.6,1.1s-0.8,1.1-1.1,1.9c-0.3,0.8-0.4,1.6-0.4,2.7v7.3h-1.9
		V149.1z"/>
	<path class="st4" d="M338.8,153.5c0,0.7,0,1.4,0,1.9c0,0.6,0,1.1,0,1.6c0,0.5,0,0.9,0.1,1.4c0,0.4,0.1,0.8,0.1,1.3h-1.8
		c-0.1-0.7-0.2-1.5-0.2-2.4H337c-0.6,1-1.2,1.7-2,2.1c-0.8,0.4-1.8,0.7-3.1,0.7c-0.6,0-1.3-0.1-1.9-0.2c-0.6-0.2-1.2-0.4-1.7-0.8
		c-0.5-0.3-0.9-0.8-1.2-1.4c-0.3-0.6-0.5-1.2-0.5-2c0-1.1,0.3-2,0.9-2.7c0.6-0.7,1.3-1.1,2.1-1.5c0.8-0.3,1.7-0.5,2.7-0.6
		s1.8-0.1,2.5-0.1h2.2v-0.9c0-1.3-0.4-2.2-1.2-2.7c-0.8-0.6-1.8-0.8-3-0.8c-1.7,0-3.2,0.6-4.5,1.7l-1.1-1.3c0.7-0.7,1.6-1.2,2.6-1.5
		c1-0.3,2-0.5,3-0.5c1.8,0,3.2,0.4,4.3,1.3c1.1,0.8,1.6,2.2,1.6,4.1V153.5z M334.9,152.3c-0.8,0-1.6,0.1-2.3,0.2
		c-0.8,0.1-1.4,0.3-2,0.5c-0.6,0.3-1.1,0.6-1.4,1s-0.5,1-0.5,1.6c0,0.4,0.1,0.8,0.3,1.2c0.2,0.3,0.5,0.6,0.8,0.9
		c0.3,0.2,0.7,0.4,1.1,0.5c0.4,0.1,0.8,0.2,1.2,0.2c1,0,1.9-0.1,2.5-0.4c0.7-0.3,1.2-0.7,1.6-1.2c0.4-0.5,0.7-1,0.8-1.6
		c0.1-0.6,0.2-1.2,0.2-1.8v-1H334.9z"/>
	<path class="st4" d="M344.2,135.7h1.9v24h-1.9V135.7z"/>
	<path class="st4" d="M355.6,164.2c-0.4,1-0.9,1.7-1.5,2.3c-0.6,0.6-1.5,0.8-2.5,0.8c-0.3,0-0.6,0-1-0.1c-0.3-0.1-0.6-0.1-0.9-0.2
		l0.2-1.8c0.3,0.1,0.6,0.2,0.8,0.2s0.6,0.1,0.9,0.1c0.3,0,0.6-0.1,0.9-0.2c0.3-0.1,0.5-0.3,0.7-0.6c0.2-0.2,0.4-0.5,0.5-0.8
		c0.1-0.3,0.3-0.6,0.4-0.9l1.3-3.4l-6-14.7h2.1l4.9,12.4l4.7-12.4h2L355.6,164.2z"/>
	<path class="st4" d="M366.2,155.9c0.4,0.8,1,1.4,1.8,1.8c0.8,0.4,1.6,0.6,2.5,0.6c0.4,0,0.8-0.1,1.2-0.2c0.4-0.1,0.8-0.3,1.1-0.5
		c0.3-0.2,0.6-0.5,0.8-0.8c0.2-0.3,0.3-0.7,0.3-1.1c0-0.7-0.2-1.2-0.7-1.5c-0.4-0.3-1-0.6-1.6-0.8c-0.6-0.2-1.3-0.4-2.1-0.5
		s-1.5-0.3-2.1-0.6c-0.6-0.3-1.2-0.7-1.6-1.2c-0.4-0.5-0.7-1.2-0.7-2.2c0-0.7,0.1-1.3,0.4-1.9c0.3-0.5,0.7-1,1.2-1.3
		c0.5-0.3,1-0.6,1.6-0.8c0.6-0.2,1.2-0.3,1.8-0.3c1.2,0,2.2,0.2,3.1,0.7s1.6,1.1,2,2.1l-1.7,1c-0.4-0.7-0.8-1.2-1.4-1.5
		c-0.5-0.3-1.2-0.5-2.1-0.5c-0.3,0-0.7,0.1-1.1,0.2s-0.7,0.3-1,0.4c-0.3,0.2-0.5,0.4-0.7,0.7c-0.2,0.3-0.3,0.6-0.3,1
		c0,0.7,0.2,1.1,0.7,1.5c0.4,0.3,1,0.6,1.6,0.7c0.6,0.2,1.3,0.3,2.1,0.5c0.8,0.1,1.5,0.3,2.1,0.6s1.2,0.7,1.6,1.2
		c0.4,0.5,0.7,1.3,0.7,2.3c0,0.8-0.1,1.4-0.4,2c-0.3,0.6-0.7,1-1.2,1.4c-0.5,0.4-1.1,0.7-1.7,0.9c-0.6,0.2-1.3,0.3-2,0.3
		c-1.3,0-2.4-0.2-3.5-0.7c-1-0.5-1.9-1.2-2.4-2.3L366.2,155.9z"/>
	<path class="st4" d="M379.5,139.2c0-0.4,0.1-0.7,0.4-1c0.3-0.3,0.6-0.4,1-0.4s0.7,0.1,1,0.4c0.3,0.3,0.4,0.6,0.4,1s-0.1,0.7-0.4,1
		c-0.3,0.3-0.6,0.4-1,0.4s-0.7-0.1-1-0.4C379.7,139.9,379.5,139.6,379.5,139.2z M380,145h1.9v14.7H380V145z"/>
	<path class="st4" d="M387.4,155.9c0.4,0.8,1,1.4,1.8,1.8c0.8,0.4,1.6,0.6,2.5,0.6c0.4,0,0.8-0.1,1.2-0.2c0.4-0.1,0.8-0.3,1.1-0.5
		c0.3-0.2,0.6-0.5,0.8-0.8c0.2-0.3,0.3-0.7,0.3-1.1c0-0.7-0.2-1.2-0.7-1.5c-0.4-0.3-1-0.6-1.6-0.8c-0.6-0.2-1.3-0.4-2.1-0.5
		s-1.5-0.3-2.1-0.6c-0.6-0.3-1.2-0.7-1.6-1.2c-0.4-0.5-0.7-1.2-0.7-2.2c0-0.7,0.1-1.3,0.4-1.9c0.3-0.5,0.7-1,1.2-1.3
		c0.5-0.3,1-0.6,1.6-0.8c0.6-0.2,1.2-0.3,1.8-0.3c1.2,0,2.2,0.2,3.1,0.7s1.6,1.1,2,2.1l-1.7,1c-0.4-0.7-0.8-1.2-1.4-1.5
		c-0.5-0.3-1.2-0.5-2.1-0.5c-0.3,0-0.7,0.1-1.1,0.2s-0.7,0.3-1,0.4c-0.3,0.2-0.5,0.4-0.7,0.7c-0.2,0.3-0.3,0.6-0.3,1
		c0,0.7,0.2,1.1,0.7,1.5c0.4,0.3,1,0.6,1.6,0.7c0.6,0.2,1.3,0.3,2.1,0.5c0.8,0.1,1.5,0.3,2.1,0.6s1.2,0.7,1.6,1.2
		c0.4,0.5,0.7,1.3,0.7,2.3c0,0.8-0.1,1.4-0.4,2c-0.3,0.6-0.7,1-1.2,1.4c-0.5,0.4-1.1,0.7-1.7,0.9c-0.6,0.2-1.3,0.3-2,0.3
		c-1.3,0-2.4-0.2-3.5-0.7c-1-0.5-1.9-1.2-2.4-2.3L387.4,155.9z"/>
</g>
</svg>
