<?xml version="1.0" encoding="utf-8"?>
<!-- Generator: Adobe Illustrator 19.2.1, SVG Export Plug-In . SVG Version: 6.00 Build 0)  -->
<!DOCTYPE svg PUBLIC "-//W3C//DTD SVG 1.1//EN" "http://www.w3.org/Graphics/SVG/1.1/DTD/svg11.dtd">
<svg version="1.1" id="Layer_1" xmlns="http://www.w3.org/2000/svg" xmlns:xlink="http://www.w3.org/1999/xlink" x="0px" y="0px"
	 viewBox="0 0 423.1 151.5" style="enable-background:new 0 0 423.1 151.5;" xml:space="preserve">
<style type="text/css">
	.st0{fill:#716C99;}
	.st1{font-family:'FatFrank-Heavy';}
	.st2{font-size:160px;}
	.st3{fill:none;stroke:#FFFFFF;stroke-miterlimit:10;}
	.st4{clip-path:url(#SVGID_2_);}
	.st5{clip-path:url(#SVGID_4_);fill:#D8996F;}
</style>
<g>
	<text transform="matrix(1 0 0 1 139.6935 128.617)" class="st0 st1 st2">S</text>
	<text transform="matrix(1 0 0 1 222.092 128.617)" class="st0 st1 st2">P</text>
	<text transform="matrix(1 0 0 1 300.9709 128.617)" class="st0 st1 st2">A</text>
	<g>
		<path class="st3" d="M31.4,35.2c11.5-11.9,26.7-18,42.1-18.3c15.4-0.3,30.8,5.3,42.7,16.8c11.9,11.5,18,26.7,18.3,42.1
			c0.3,15.4-5.3,30.8-16.8,42.7c-11.5,11.9-26.7,18-42.1,18.3c-15.4,0.3-30.8-5.3-42.7-16.8c-11.9-11.5-18-26.7-18.3-42.1
			C14.4,62.5,19.9,47.1,31.4,35.2"/>
		<g>
			<defs>
				<path id="SVGID_1_" d="M38.4,41.9c9.6-9.9,22.2-15,35-15.2C86.1,26.4,99,31,108.9,40.6c9.9,9.6,15,22.2,15.2,35
					c0.2,12.8-4.4,25.6-13.9,35.5c-9.6,9.9-22.2,15-35,15.2c-12.8,0.2-25.6-4.4-35.5-13.9c-9.9-9.6-15-22.2-15.2-35
					C24.2,64.6,28.8,51.8,38.4,41.9"/>
			</defs>
			<clipPath id="SVGID_2_">
				<use xlink:href="#SVGID_1_"  style="overflow:visible;"/>
			</clipPath>
			<g class="st4">
				<defs>
					<path id="SVGID_3_" d="M31.4,35.2c11.5-11.9,26.7-18,42.1-18.3c15.4-0.3,30.8,5.3,42.7,16.8c11.9,11.5,18,26.7,18.3,42.1
						c0.3,15.4-5.3,30.8-16.8,42.7c-11.5,11.9-26.7,18-42.1,18.3c-15.4,0.3-30.8-5.3-42.7-16.8c-11.9-11.5-18-26.7-18.3-42.1
						C14.4,62.5,19.9,47.1,31.4,35.2l-3.7-3.5"/>
				</defs>
				<clipPath id="SVGID_4_">
					<use xlink:href="#SVGID_3_"  style="overflow:visible;"/>
				</clipPath>
				<path class="st5" d="M-37.8,152.9L196.8,4l-6.1-9.6L-80.9,166.9c-10.2,6.5-14.1,11.7-6.1,8.3l40.9-17.6
					C-43.8,156.5-40.8,154.8-37.8,152.9z"/>
				<path class="st5" d="M-60.9,116.5L173.6-32.4l-6.1-9.6l-271.6,172.5c-10.2,6.5-14.1,11.7-6.1,8.3l40.9-17.6
					C-67,120.1-64,118.4-60.9,116.5z"/>
				<path class="st5" d="M-23.5,171.3L211,22.3l-6.1-9.6L-66.7,185.2c-10.2,6.5-14.1,11.7-6.1,8.3l40.9-17.6
					C-29.6,174.8-26.5,173.2-23.5,171.3z"/>
				<path class="st5" d="M217.2,32.4L-54.4,204.9c-10.2,6.5-14.1,11.7-6.1,8.3l40.9-17.6c2.4-1,5.4-2.7,8.5-4.6L223.3,42L217.2,32.4
					z"/>
				<path class="st5" d="M62.4,55.3l13,0.1c0.8,0,1.6-0.3,2.4-0.7l58.3-37L130,8L62.4,50.9C59.9,52.5,59.9,55.3,62.4,55.3z"/>
				<path class="st5" d="M43.4,63.7c-0.8,0-1.6,0.3-2.4,0.7L14.9,81.1l6.1,9.6l35.4-22.5c2.5-1.6,2.6-4.4,0-4.4L43.4,63.7z"/>
			</g>
		</g>
		<path class="st0" d="M32.5,36.2c11.2-11.6,26-17.6,41-17.9l0,0c0.4,0,0.7,0,1.1,0c14.6,0,29.2,5.4,40.6,16.4l0,0
			c11.6,11.2,17.6,26,17.9,41l0,0c0,0.4,0,0.7,0,1.1c0,14.6-5.4,29.2-16.4,40.6c-11.2,11.6-26,17.6-41,17.9l0,0c-0.4,0-0.7,0-1.1,0
			c-14.6,0-29.2-5.4-40.6-16.4l0,0l0,0c-11.6-11.2-17.6-26-17.9-41l0,0c0-0.4,0-0.7,0-1.1C16.1,62.2,21.6,47.6,32.5,36.2l-2.2-2.1
			C18.9,46.1,13.1,61.4,13.1,76.8c0,0.4,0,0.7,0,1.1l0,0c0.3,15.7,6.6,31.3,18.8,43.1l0,0c11.9,11.5,27.3,17.2,42.6,17.2
			c0.4,0,0.7,0,1.1,0l0,0c15.7-0.3,31.3-6.6,43.1-18.8c11.5-11.9,17.2-27.3,17.2-42.7c0-0.4,0-0.7,0-1.1l0,0
			c-0.3-15.7-6.6-31.3-18.8-43.1l0,0C105.3,21,89.9,15.3,74.6,15.3c-0.4,0-0.7,0-1.1,0l0,0c-15.7,0.3-31.3,6.6-43.1,18.8L32.5,36.2
			L32.5,36.2z"/>
	</g>
</g>
</svg>
